<svg width="30" height="31" viewBox="0 0 30 31" fill="none" xmlns="http://www.w3.org/2000/svg">
<g clip-path="url(#clip0_29_306)">
<path d="M15 26.9052C21.3513 26.9052 26.5 21.7564 26.5 15.4052C26.5 9.05388 21.3513 3.90515 15 3.90515C8.64873 3.90515 3.5 9.05388 3.5 15.4052C3.5 21.7564 8.64873 26.9052 15 26.9052Z" fill="#C6FFE0" stroke="#19303D" stroke-dasharray="2.08 2.08"/>
</g>
<g clip-path="url(#clip1_29_306)">
<path d="M10 21.499H21V9.81146L10 9.81146L10 21.499Z" fill="#C6FFE0"/>
<path d="M16.4306 12.3193L16.1875 12.0762L15.7014 12.5624L15.9444 12.8054L16.4306 12.3193ZM18.9375 15.3124L19.1806 15.5554L19.4236 15.3124L19.1806 15.0693L18.9375 15.3124ZM15.9444 17.8193L15.7014 18.0624L16.1875 18.5485L16.4306 18.3054L15.9444 17.8193ZM15.9444 12.8054L18.6944 15.5554L19.1806 15.0693L16.4306 12.3193L15.9444 12.8054ZM18.6944 15.0693L15.9444 17.8193L16.4306 18.3054L19.1806 15.5554L18.6944 15.0693Z" fill="#19303D"/>
<path d="M18.25 15.6566H18.5938V14.9691H18.25V15.6566ZM12.0625 14.9691H11.7188V15.6566H12.0625V14.9691ZM18.25 14.9691L12.0625 14.9691V15.6566L18.25 15.6566V14.9691Z" fill="#19303D"/>
</g>
<defs>
<clipPath id="clip0_29_306">
<rect width="30" height="24" fill="white" transform="translate(0 3.40515)"/>
</clipPath>
<clipPath id="clip1_29_306">
<rect width="15" height="13" fill="white" transform="translate(7.5 9.40515)"/>
</clipPath>
</defs>
</svg>
